/* XPM */
static char *_b958d5b582344ada6ac80dfda7709cbov17evZwwAUDMX2g[] = {
/* columns rows colors chars-per-pixel */
"100 100 66 1 ",
"  c #3C3C3C",
". c gray24",
"X c #3F3F3F",
"o c gray25",
"O c #414141",
"+ c gray26",
"@ c #434343",
"# c #444444",
"$ c gray27",
"% c #464646",
"& c gray28",
"* c #484848",
"= c #494949",
"- c gray29",
"; c #4B4B4B",
": c #4C4C4C",
"> c gray30",
", c #4E4E4E",
"< c gray31",
"1 c #505050",
"2 c #515151",
"3 c gray32",
"4 c #535353",
"5 c gray33",
"6 c #555555",
"7 c #565656",
"8 c gray34",
"9 c #585858",
"0 c gray35",
"q c #5A5A5A",
"w c #5B5B5B",
"e c gray36",
"r c #5D5D5D",
"t c gray37",
"y c #5F5F5F",
"u c #606060",
"i c gray38",
"p c #626262",
"a c gray39",
"s c #646464",
"d c #656565",
"f c gray40",
"g c #676767",
"h c #686868",
"j c DimGray",
"k c #6A6A6A",
"l c gray42",
"z c #6C6C6C",
"x c #6D6D6D",
"c c gray43",
"v c #6F6F6F",
"b c gray44",
"n c #717171",
"m c #727272",
"M c gray45",
"N c #747474",
"B c gray46",
"V c #767676",
"C c #777777",
"Z c gray47",
"A c #797979",
"S c gray48",
"D c #7B7B7B",
"F c #7C7C7C",
"G c #7E7E7E",
"H c gray50",
/* pixels */
"uutttwfhhftffufffffufhfutufffhffhhhfhccffccfufutwwttttuftuftfufww3uw7>3ww73377wwttutw7www773337twhbf",
"cchccCChccutcbfhhhchhufccbCbbchhfhfhfffwtfffttttuhhffhfftffufuffw>ww3;@ @$;;$$$$$;$;>;;;>33>7337tufh",
"ZCbCCbbbcbbCcbhuuufhcbbZZZCbZZchfhfffuwfhuhfufuffcbffuuufffuuttuufuuft37tutw73777w777333;333tffhhcbb",
"ZCcbbcbchbCZCbchuuhfhbZCCbbbCbbccchhhcfchffffhuucfhcchtffhuutffhfuuutu7wtttuuuutwutwuuuutwwtuuufuuut",
"bcccchcfhhcccbhutuuffhcbbhhcccbCbcccchcchcchfffhfchffhffhhhffcutuutfw7;$>wtttufftttww7wt77w7twww7377",
"fhuuuttuuuufuuuffhchccbbbcbCbbZZZFFFZZCCbbcbbchchwufhhhhutuhhhutuffhchtuffhffhhhccchffufffuuuftfuhfu",
"hccfffhhcchhfhhhfhbhcbbCCcccCbbbbbCcbbffhfffffhchhuuutuftwufuwttuuhhchttfhfuttfhccchfuuuhhchhhfhuffu",
"hhffchfffcbbchhbbbbccchcffffcccbbbfuccfchfcccfhffuuwtftww77ttufhffuchct3ww7w37wuffutwtuffcchhuuttt7t",
"t7wuwwttufffuhhhcuttfutffhhfhccbhbccCCccCccuwwt7>7777tuwwttwfhcccccCbctww3373>777www7wtfuuuuuutuuuhh",
"tttww73www>3wttuw7wuttwtuuffffhcbbbbcbcchhhhuuftuuufutttttfuuuufufhhccfftw33t77wwwwwftuuuufuhhhcfhcf",
"uw7w7373w3twwt7wwfccftuuufcchbbchchhhhchhhffut733ttwtuww77twttwuufhwuuuf7;>7w>;;3t3wwttuuuuuuhhhffff",
"wthbuwuftft37wtutft7tuuufcchhfhhuuuttfffthtwtw7w>3wwffftutftufuffufcuuf73>>>7w>33tww>7w77uutttuutuuu",
"twt7tutuuuthfbhhcbCbcffhfhcfufuutwtuuwttttffufhftuuwttufufufuhfbbcccbcut>>>3wtufhhfhfuutuutfffffuffh",
"wwutw7wufhuwhccccbbbhhhfw73w3ww773>77tutuhhffcchhftwfuhfftuufhcbcccCbuft3>;>737777uftuhchffchfffhhut",
"uttwt3wtw>>7tufhuhfhffuutt33777>7>>w377wuuutuhbhuffftuuuuuutuufchchbcuuw333;>3;>>;7uwtwwtuuuuttuuftw",
"tw7t7>77wt3tutuuufuhff7wtww3>33>tu3ww33tuuuuuffcfuhuuufhcfhffhffhbcCc7uuw7u>73>$>>3uf73ttfthffuuutuu",
"w>>7>$>3w77wwwwuttwtfuuwww33>3>3377>>>;337wttffuwwttuwuuw77ttttuuuufu3wt3>w33>7;@$7ww3ww7utww7w7twtt",
">>>3>>t7$w73>3>7377ttu>>33333>>37w777737wttwwtwwuutw77tuwwwuftffuuuhftfhu7tw773737www7733tut77twtwww",
"3>3w333>333>>>>773377777>>;>;>>>>;;>>;3>>3ww7773w77ww7777wwwu7tfwtwtw3wtw3wtwww73w7wtww37ttwtwtttw7t",
"3>333>3w>;$;>;;;>>>7w7337773>>>3>;;$$>;>>;3>3>>>33>>;3377www7wwfww7>>>3>>>>37337377>>>>33wt73>733333",
"33373;>337337>>>;$$;;3>;33333>>33>>;;3>$;;>>3>>;;>3>;;>33>3>>33w7333>>>>;>>>>>337777>;377773>37733w7",
"wt7ww777wtttttwt773;$3>;;>3>>>>>>>>;;>73373337>>77333wt3t733;;3>;>>;;;;;>>3>;333333>>>377337>33>37ww",
"373773w7737wwww3>3333>3>373>3w733>3>37w7377333>;>7>>3>377>$;>;>;;33;>>>;;;>3333333>333333>>>3>>;$>;>",
"3733337w3>>>73>>;>>;;>;$>3>33ww7733wtw3333tw7>;33>;;$;>3>>>;;;;;;33373>>>;>>>;>>;>;$;;>>>>>>>;;;$;;$",
"7w77tuuuwt7w73w733>>3737733777337337773337wtw7>>>3>>$$>;>3>$@$$;$$;;>>;>;;>>>>;>;;;;;;;;;$;>;;$$@$;$",
"77twwutwwttutwww773>37wtt7373>>7>>3333>3733773>>33>3>>;>>3>;$;;>3>>>>3>3;>>>>>>$@$$;$$$;$$$;$@$$@@$$",
"37ww7777www77w73333777wtt7333>>33>>>;>>;>>>;;;;$>>;>>333373>;;;>>>>;>>>>3>>>3;>;@@$@$>;@;$$$$@;$@ $;",
">773w3>>3w3w77>>3w7333wtt33333>>333>>;>;$>>$;;;;>>;$$;;;>>;;$$;$@@;;>;$>>;;;>>>;;@$$;>;$@;$@;$>>>@;;",
">t7>3>>3777w773>>7w77733w737>>3337733;;>$$373;$$;$>>;>$$@@$$@$;$$$$$$$;$$$$;>;;;;$$$;;;>>;$$;;;;>$;$",
"773>77ww7wwww7ww7ttw7w73tw777ww7w7t73333>>wwww>;;377>;@$@@@@@;>>; $>$$7>$$>>>>>>3>377733>>;;3>>;;>>$",
"w33337ttww737w7777wwwwwwwwwwwwwwttt773333773333;>7773;>>>3wt773>;>>>33>>;>33>37www7333>>>>>>>;;;337>",
"7;>3337ww77337777773>3ww7uw7w337wwtwwtw7777w37w33ww7w7wttwww733333>33wwwwtw777777>>3>;>;333;33373337",
"3333wwwuwwwtw77wwwttutttuuuuutwttuttttffuututwttttuttwttwww7ww377377wwtwwwtwwwww733w33w7777ww7w7ww73",
"777tttfft73wwwttuuftwtuuutuw77w77733777337wufwtutw7ww7wttwtw733777777w77733773>>337wwwuttw337373w773",
"utwwwufut7tww7w7wwww7wtwttuw37ww3ww7777373wutwwtuututtfffttw7w777w337w3737777733>33>37wwffw3w7wwwwtw",
"hhwwwffttw77733377777777wtuw7tutt7tuuuttutwuuww7wttutuufhutttwttw77w7w77>>37ww3;;>73>373333wufhhuuw7",
"chuttuufuutuutwwtwwtttutwtuwwwtwww73773tuuw777wwwwtutwuttuuftttww7ww773733>3wuu>$;>>>37>>3>7w7777w33",
"utw77wwwfhutwutwwwwuftuuwwtttutuuwutw7wtwww7www737w777wwwtutwuwtwww7377337337w>$$;;;;>>>>>>;3>3>>733",
"hbcuuuwwufu7w773337737ww37wtw7ww777>>>;33777777w7t7w733tw7w7wuufhfutwfw7www37w>;;;>;7737w337w773wwww",
"uhbccctwtufw7wwwwtttfufhffutchhfuuwwttt7wtwuwtwwwwtttw7wwtttuffhchfuuffttut777w733>;>337333tw7w7w;>>",
"ftcchbhffhhufhtuffuuffucCCfwfhhuuufuhfhffuhuufhffttwwt7ttwutuuhufuuuttuuwtw733uftw773737tw733>>3;;$$",
"cufhchcbhfuhfutuffutw77tfhftuffuutufhhfcffbcfutttw7wwtwttwwttwwtuuwttthftuuuuuhChww77ww773>;>;$;;$$;",
"CCchcffhfuuuthfuhffuuuuuutfftuffhfutuuuuufuCcuuffuftttutuwttuuutw77wtttfffffttufu77w3333>>>>>>>;7333",
"ubhuuutuuftwtwwwtutwtttuuutwwttuffutttwww7wuufuwftftw773377wwwwwtw77w737w77t777wuww733733>>333;;>>>>",
"thbhchffhchfhhcccchfttuffutfchfufchhchcfwuuwhu7wwuuwfutwwtufuww77w7333>;;;;>33>373>3;$$;;$;;$$$$;;;;",
"hhccbcbhfhhfhffcfuufuuufhhfhhchfhhffffhhhfutuftwww73w73377wt777777>>37777773wutw73373>;>;>>;;>>33>7>",
"fufffufhfffffhffuufhffffuufffuffhhfufffhhfhuuutfhuwufffuufhhtuuttuuwwtfuuttwwtu777wwuwwwwt33333>>373",
"tww3w7tutuhhhhffffuuttttttttttufuttuffuhhhhchuuuhutufuuhffut77twt7wutufhfutwtw733>337777w733>>3>3>37",
"chchchtfu3wtwufuhhccchffufuttttwutwufutwttuuuuuuutuuwwwtwwtw7wwwfufufutuutuuhchf7373>>>>;>;>3>7;>;;3",
"thhufhfcfccft37ww7wwwttfffuuututututttt7twtuuuu73www7www>3>>>3>777377wuuufffhhhhchutuutw3>777733w>>3",
"utufffuffuttt7wuuw3333>3>>w7wwtttfuftuttwwwwttuw7ww7>$;3>337ww737wuuffuuffhchcchfffffuttttufuuwut77t",
"wffuffuutufttttwtwtt77w777wt77w737w77>ww37wwtfw3$;>>37ttwut7twwwwtuffuffhuffftwtutt7wwwtuuuuhhuuutfc",
"twtfufuhuuuuwwttttufffffuffuuutftwutfwww73wtttt7737ww3twtttwttwttffffhhhhhfffuuuuutuufuhhufffffhffuf",
"ffhfhfhhhhhhfuffuufuffhhhftuttwtttttututtttwttftw3w3twtw77tww3ww7wwwuutwtttttuwttuwwutttw73@;;w3$>3u",
"tw7twtutuutttwwuuuutwtuffhuutufhffttw7uwwtuuuuuhuwtwt7w7>7wwwtwuttuttt777tw33>>777tutt7tht>;$37>;>>7",
"t7377twwwww73w377ww7twwtufuttuuuhut3w77twttuuuhbut7wwtww777uhchtuuuttuutut733>33777ttfucfu737w7ww77w",
"33377wtww77w7w7373wt7333wuutuwwtuuttw3w7ww3wfhhhhu77>7737tuwtt7u7w777tww3>>;37ww73773>7>73>>333>>>>>",
"ttttttw7ttwwwuw7tuwttwtwwwtww7>3w3>>3>>w33337tcccw737tttuwutwt3t>>>33twt3w7>3>3>>773w7$$>;773>333337",
"tu7wwtwtuftfututwwwut77ww377t7333733$3>>7w77wtwufwtuhhhhhufuutffhhttwww7w7ww7w3377w37w>7w>7733>3>7>>",
"uww7wwtuthhhhfhhhuhhfufufuffftww7737>>7;>t>>33777thuwtwwttfuftftutw733w77ww7377ttt7wtwwwtuutu7>;3;;3",
"tfwufuwuwtuw373ufuufuwfhfffhfutttw3www>$;;@@>>7>>33wt3;w>twwww33w733;>3373w7uuuuuw77wtuw7w7773;>>;>>",
"hhfuufuuuwutw3;3twwuuttuufhffffwwww73w7tuf77utww7w777wwu3tttw77tw37733337wtwtww>7w77w737377t3>>7;77w",
"ufhfuufft77tuutttwwtfuuuutuffht3tuuttuwufftwww>777w7ww7w33w77w7t7>3333737737wwtw73>;377wwtwwtttwtutt",
">tfufuuffufufhfhfhufhhffftutufttuuffutuufft7t7t>wtw737w3>3337wtuw77ww7ww7wwuttuftw77wthutwuttufufttt",
"w3uuuwutfhuuhfhhhhffhchuuwwttuufuhchuutuwuuwu7f7tw3w37w33777377w377337wwwwtfttutwwuw77373wtwuuttfwuu",
"wwufu777twtttfhhhhfffhftttuutuuutufu7wwt7utwuwf>37wwwwtww77wwutftwwwwwttuuttww7wtw77wtwwwwwwtuufuuft",
"tttftw3w77wwwuuuuttwtttwwwwt7wtttuuw3twwwt73w7t>>33www7>3777wwttw777337wttw7777t77737wwwttuuffufwt>$",
"twuuuttw7ttuthfutttuwut7wttt73ttwwf33tt7uu37twu>>77t377w33t7w7w3>733337wtw7777wtuutwwtuttwttuuw>37;;",
"wufuffwuw7utwuuttttfwww37twt73wtttu>7tw7tw3wttt377wu7777;>7777337>37333ww7773w7773>7t7wwwttuuut7w73$",
"ufhfuuftt3tt3huttufuuuutufffffuuhft7wu77ut7wtuw37>w73>>3>t7t77w7w33733333377www33733377wwttwuuuw>;;3",
"ufffftutttut7twuuuuttfuffuuuututtw77ttttutwt7w7ww77773377tw7w7ww777w3777w33w77>7w33737wwwt7wtwwww777",
"3wfuuuwwt7wt377www777t777ww33777777www7ww73333777777w3777>>>33wwwtw7t77777773>>37>33>3www777w337w777",
";;7w37737>>3;3>33>>>>>>>>37333373>377w3ww777w77w7777w3w733w77wwwtuuffutwttww73>77wt73777777373>3773>",
"337www7>>3>;;>>>>;>>>>>;>>3333337ww7wwttwttttwwwtttuf7wwwwtuutttuuufuufuttttt777wufuttw7wwwtwww33337",
"tfcuuuuuww7737wttwwtww77ttt7777w77twuutwwwttuufutttfbfhhftuuuuutttwuututwww7ttw77wuww77337wt7373>>>3",
"ccbhhhhutwwwww7ttwwtwwwwtww7733737w7wtww77tuhcftttwuctuuwwtwwwuttwwtutttwtwwwtw737t7w3>;;>33w>33;;;$",
"hhhfhhutwt7wtuttuwwtwttwww77773337t7w7ww7wwufuw7wwwuu7w737wwwuuututwtfutfftww7ttw7w777>>3>>373>>3>>;",
"cchuhf7ttww7wwwuuwttttuttuttww77wwwwtuwwwwtttwtwtttuhuuwttttfffftuuwtuttuww7733www7w737w77733w33w377",
"hfhuuw77ufuuttwtttttttutuuttwwwwttttutt7wuuuuutwwwttffttutuuuuuttwutwtwwt7wttw77wwtttwwwwwttutwwu7w7",
"ftuwtw7wwhfuutuut7www7wttw777w777w7wwwwwwtwtut7777wtww7www7wwww7w7wt733ww77773>>>wutww773twtwwwtw37w",
"7u73w37>7wtw77www773737ww73;>377w777tuwwwww7wtw777www37777777w7377ww7337777333>>33733333>>3>>;73>>>3",
"3fuwu7>>77773337733>>>>>;$$;;>3377twwutwtttwtuttw77t7w373>3333>>>33737333333>3>3>3>>;$$>>$$;;>>>;;>>",
"3tft>>>>>3>>;>>>3>>>>;>;>;>>>37777777377wtuttwwwwwthttww77777t3>>>>>>3333777wwwwtutw77wtw777ww7777w7",
"twt73>>wwwtfuwtwwwwtww777w73337ww7wwttttwtwttttwuuhbhutttufhufffuuttwtw73wtttttttuuuutttttuttwwwtwwt",
"w7737>7tfuhhffuttw7wt77w77777w77w777wtttwtuuttufftfhutwwtufffuuuuuttutw777wwwwttttutuuttuuhutwwwtwwt",
"twww77thhfffffutt7tw7twuuut7737wtwttwwwttwwttwww7wtt77777773t377377777w3ww3>33777tt73tuuw7wwwtwtwwww",
"wwtttttufftutt77wwutwtwtt7>33337w773333373>wuffuutfhffutwttww3733333ww73>>>>>>3tt777337w333337>33377",
"733wwww7uttuutw7wwww777wt77w3wttuuwwtww77wwww7ttttwttffftwwtwwwwtwwwww337733>>377>>>$;;;;;;>>>>>3377",
"33377737733;$@  @  @@@;;;>>3>>3>33>;37wwtwtutufuhhfcftuuuuttwwtuuutww7737773337tw3333;>3>33377>>>3>>",
">;;$$>>73>;;;>373>$$>;>;@@@;>;;@@;;@@@$;>3737wwttffffffuuhfhffuuutuuuwwwwwtwwttfutw737twtt7tuuw3373>",
";$$;@@;>>;;>>3>;$@@$;33>;;;333>>;33>;33>33777>333wt7>>377773373333333333>>>333>777w7ww77www7www77773",
"$;@>>3>>3>7ww3777373333>3>>3333>33wttwwwwwwww733777777wwt7w7w7377wwww7twwtt773373;>>;33wwtuuutwwwww7",
">33777wtuuufuttw7>>>33>;>333333333777733wtttttttuutwwwwwwtt7773w7wwtt7777733>>;>3>;$$;;;;>>3w7337373",
"73>3>>wutw3ww7333>>3733333777wwwww7t7>3737ww7wtttttwtuuuhuuuuttw7w77733737w3333333>$$;;>>333;>>>3373",
";>>;$$37>>$;;>>>>>;>73>>>>;>3333773>>>37>737737twww737wtw7w7uw7ww7w777wtw7377737337w37w77tutwtuuttu7",
";$33;3>33>>333333>333>;>>>>33>;;;3;>>>33;333777uttt77ww7>>>>3>@>3>>37wwwww7w7ww73wu777377tw7>37twtw7",
">>>3>>33>>733>;>;>>>>;>>>>;>;;>73w77w733737wwttww77wt7w3ww77;>$>wttfttfhfffcfut7tffw333777wwwtuutu33",
">737tw7twwwttw77337377>333377>3>>;>;;;;3>>;>wtfwuw33ww333>3737>>3tw73>>3777wwutttufuuuwuututtutt777w",
">;7;>337w3w7wwww777373>>>3>7w7773333>7tw77w37wt7ufuwwt7w73wwww77737t777wwwttuttttffffwwftwuw>37333w7",
"@;;>;;;7w33$>;33>;$$>>>>>7337u3>;>7>3;>3wt773337tuhtw73wt3333>w7777ttw77w7ut7337ttthu77wfutttwutwttt"
};
